<svg width="351" height="251" viewBox="0 0 351 251" fill="none" xmlns="http://www.w3.org/2000/svg">
<g clip-path="url(#clip0_1604_3681)">
<g filter="url(#filter0_f_1604_3681)">
<ellipse cx="154.5" cy="217.5" rx="143.5" ry="8.5" fill="url(#paint0_linear_1604_3681)" fill-opacity="0.4" style="mix-blend-mode:multiply"/>
</g>
<path d="M191.75 41.625C191.722 44.2576 191.696 46.8902 191.671 49.5228C191.449 73.216 191.338 96.9093 191.338 120.603C191.338 144.296 191.449 167.989 191.671 191.682C191.696 194.315 191.722 196.948 191.75 199.58C191.777 196.948 191.803 194.315 191.828 191.682C192.05 167.989 192.161 144.296 192.161 120.603C192.161 96.9093 192.05 73.216 191.828 49.5228C191.803 46.8902 191.777 44.2576 191.75 41.625Z" fill="#CC85FC"/>
<path d="M305.947 55.5C305.919 57.6345 305.893 59.7691 305.869 61.9036C305.646 81.1144 305.535 100.325 305.535 119.536C305.535 138.747 305.646 157.957 305.869 177.168C305.893 179.303 305.919 181.437 305.947 183.572C305.974 181.437 306 179.303 306.025 177.168C306.247 157.957 306.359 138.747 306.359 119.536C306.359 100.325 306.247 81.1144 306.025 61.9036C306 59.7691 305.974 57.6345 305.947 55.5Z" fill="#CC85FC"/>
<path d="M280.334 45.8906C280.306 48.3453 280.28 50.8 280.255 53.2548C280.033 75.3471 279.922 97.4395 279.922 119.532C279.922 141.624 280.033 163.717 280.255 185.809C280.28 188.264 280.306 190.718 280.334 193.173C280.361 190.718 280.387 188.264 280.412 185.809C280.634 163.717 280.745 141.624 280.745 119.532C280.745 97.4395 280.634 75.3471 280.412 53.2548C280.387 50.8 280.361 48.3453 280.334 45.8906Z" fill="#CC85FC"/>
<path d="M222.703 24.5508C222.675 27.7526 222.649 30.9544 222.625 34.1562C222.402 62.9723 222.291 91.7885 222.291 120.605C222.291 149.421 222.402 178.237 222.625 207.053C222.649 210.255 222.675 213.457 222.703 216.658C222.73 213.457 222.756 210.255 222.781 207.053C223.003 178.237 223.114 149.421 223.114 120.605C223.114 91.7885 223.003 62.9723 222.781 34.1562C222.756 30.9544 222.73 27.7526 222.703 24.5508Z" fill="#CC85FC"/>
<path d="M165.07 45.8906C165.042 48.3809 165.016 50.8712 164.992 53.3615C164.769 75.774 164.658 98.1866 164.658 120.599C164.658 143.012 164.769 165.424 164.992 187.837C165.016 190.327 165.042 192.817 165.07 195.308C165.097 192.817 165.123 190.327 165.148 187.837C165.37 165.424 165.482 143.012 165.482 120.599C165.482 98.1866 165.37 75.774 165.148 53.3615C165.123 50.8712 165.097 48.3809 165.07 45.8906Z" fill="#CC85FC"/>
<path d="M135.187 51.2305C135.16 53.5073 135.134 55.7841 135.109 58.061C134.887 78.5524 134.775 99.0439 134.775 119.535C134.775 140.027 134.887 160.518 135.109 181.01C135.134 183.287 135.16 185.563 135.187 187.84C135.215 185.563 135.241 183.287 135.265 181.01C135.488 160.518 135.599 140.027 135.599 119.535C135.599 99.0439 135.488 78.5524 135.265 58.061C135.241 55.7841 135.215 53.5073 135.187 51.2305Z" fill="#CC85FC"/>
<path d="M252.627 37.3594C252.599 40.1343 252.573 42.9092 252.548 45.684C252.326 70.658 252.215 95.632 252.215 120.606C252.215 145.58 252.326 170.554 252.548 195.528C252.573 198.303 252.599 201.078 252.627 203.853C252.654 201.078 252.68 198.303 252.705 195.528C252.927 170.554 253.038 145.58 253.038 120.606C253.038 95.632 252.927 70.658 252.705 45.684C252.68 42.9092 252.654 40.1343 252.627 37.3594Z" fill="#CC85FC"/>
<path d="M309.807 62.3141C306.747 62.2866 303.688 62.2605 300.628 62.2358C273.093 62.0135 245.557 61.9023 218.022 61.9023C190.486 61.9023 162.951 62.0135 135.416 62.2358C132.356 62.2605 129.297 62.2866 126.237 62.3141C129.297 62.3415 132.356 62.3676 135.416 62.3923C162.951 62.6146 190.486 62.7258 218.022 62.7258C245.557 62.7258 273.093 62.6146 300.628 62.3923C303.688 62.3676 306.747 62.3415 309.807 62.3141Z" fill="#CC85FC"/>
<path d="M332.217 150.896C328.481 150.869 324.746 150.843 321.011 150.818C287.392 150.596 253.773 150.484 220.154 150.484C186.535 150.484 152.916 150.596 119.298 150.818C115.562 150.843 111.827 150.869 108.091 150.896C111.827 150.924 115.562 150.95 119.298 150.974C152.916 151.197 186.535 151.308 220.154 151.308C253.773 151.308 287.392 151.197 321.011 150.974C324.746 150.95 328.481 150.924 332.217 150.896Z" fill="#CC85FC"/>
<path d="M339.688 121.013C335.543 120.986 331.398 120.96 327.254 120.935C289.953 120.713 252.652 120.602 215.351 120.602C178.05 120.602 140.749 120.713 103.448 120.935C99.3039 120.96 95.1594 120.986 91.0148 121.013C95.1594 121.041 99.3039 121.067 103.448 121.092C140.749 121.314 178.05 121.425 215.351 121.425C252.652 121.425 289.953 121.314 327.254 121.092C331.398 121.067 335.543 121.041 339.688 121.013Z" fill="#CC85FC"/>
<path d="M329.016 92.1969C325.334 92.1694 321.652 92.1434 317.969 92.1187C284.831 91.8963 251.692 91.7852 218.554 91.7852C185.415 91.7852 152.277 91.8963 119.138 92.1187C115.456 92.1434 111.774 92.1694 108.092 92.1969C111.774 92.2243 115.456 92.2504 119.138 92.2751C152.277 92.4974 185.415 92.6086 218.554 92.6086C251.692 92.6086 284.831 92.4974 317.969 92.2751C321.652 92.2504 325.334 92.2243 329.016 92.1969Z" fill="#CC85FC"/>
<path d="M309.807 178.646C306.801 178.619 303.794 178.593 300.788 178.568C273.733 178.346 246.678 178.234 219.623 178.234C192.568 178.234 165.512 178.346 138.457 178.568C135.451 178.593 132.445 178.619 129.439 178.646C132.445 178.674 135.451 178.7 138.457 178.724C165.512 178.947 192.568 179.058 219.623 179.058C246.678 179.058 273.733 178.947 300.788 178.724C303.794 178.7 306.801 178.674 309.807 178.646Z" fill="#CC85FC"/>
<g filter="url(#filter1_f_1604_3681)">
<path d="M192.281 1.79971e-08C192.253 3.96667 192.227 7.93334 192.203 11.9C191.98 47.6 191.869 83.3 191.869 119C191.869 154.7 191.98 190.4 192.203 226.1C192.227 230.067 192.253 234.033 192.281 238C192.308 234.033 192.334 230.067 192.359 226.1C192.581 190.4 192.693 154.7 192.693 119C192.693 83.3 192.581 47.6 192.359 11.9C192.334 7.93334 192.308 3.96667 192.281 1.79971e-08Z" fill="#CC85FC"/>
<path d="M305.955 37.3516C305.927 40.162 305.901 42.9725 305.876 45.783C305.654 71.0771 305.543 96.3713 305.543 121.665C305.543 146.96 305.654 172.254 305.876 197.548C305.901 200.358 305.927 203.169 305.955 205.979C305.982 203.169 306.008 200.358 306.033 197.548C306.255 172.254 306.366 146.96 306.366 121.665C306.366 96.3713 306.255 71.0771 306.033 45.783C306.008 42.9725 305.982 40.162 305.955 37.3516Z" fill="#CC85FC"/>
<path d="M280.341 24.5508C280.314 27.7526 280.288 30.9544 280.263 34.1562C280.041 62.9723 279.93 91.7885 279.93 120.605C279.93 149.421 280.041 178.237 280.263 207.053C280.288 210.255 280.314 213.457 280.341 216.658C280.369 213.457 280.395 210.255 280.42 207.053C280.642 178.237 280.753 149.421 280.753 120.605C280.753 91.7885 280.642 62.9723 280.42 34.1562C280.395 30.9544 280.369 27.7526 280.341 24.5508Z" fill="#CC85FC"/>
<path d="M222.709 1.79971e-08C222.681 3.96667 222.655 7.93334 222.63 11.9C222.408 47.6 222.297 83.3 222.297 119C222.297 154.7 222.408 190.4 222.63 226.1C222.655 230.067 222.681 234.033 222.709 238C222.736 234.033 222.762 230.067 222.787 226.1C223.009 190.4 223.12 154.7 223.12 119C223.12 83.3 223.009 47.6 222.787 11.9C222.762 7.93334 222.736 3.96667 222.709 1.79971e-08Z" fill="#CC85FC"/>
<path d="M165.078 18.1445C165.05 21.542 165.024 24.9394 165 28.3369C164.777 58.914 164.666 89.4912 164.666 120.068C164.666 150.645 164.777 181.223 165 211.8C165.024 215.197 165.05 218.595 165.078 221.992C165.105 218.595 165.131 215.197 165.156 211.8C165.378 181.223 165.489 150.645 165.489 120.068C165.489 89.4912 165.378 58.914 165.156 28.3369C165.131 24.9394 165.105 21.542 165.078 18.1445Z" fill="#CC85FC"/>
<path d="M135.193 37.3516C135.166 40.3399 135.139 43.3282 135.115 46.3166C134.892 73.2117 134.781 100.107 134.781 127.002C134.781 153.897 134.892 180.792 135.115 207.687C135.139 210.675 135.166 213.664 135.193 216.652C135.22 213.664 135.247 210.675 135.271 207.687C135.494 180.792 135.605 153.897 135.605 127.002C135.605 100.107 135.494 73.2117 135.271 46.3166C135.246 43.3282 135.22 40.3399 135.193 37.3516Z" fill="#CC85FC"/>
<path d="M252.724 1.79971e-08C252.697 3.96667 252.671 7.93334 252.646 11.9C252.424 47.6 252.312 83.3 252.312 119C252.312 154.7 252.424 190.4 252.646 226.1C252.671 230.067 252.697 234.033 252.724 238C252.752 234.033 252.778 230.067 252.802 226.1C253.025 190.4 253.136 154.7 253.136 119C253.136 83.3 253.025 47.6 252.802 11.9C252.778 7.93334 252.752 3.96667 252.724 1.79971e-08Z" fill="#CC85FC"/>
<path d="M290.604 32.4313C288.202 32.4038 285.801 32.3777 283.399 32.353C261.787 32.1307 240.175 32.0195 218.563 32.0195C196.951 32.0195 175.339 32.1307 153.727 32.353C151.326 32.3777 148.924 32.4038 146.523 32.4313C148.924 32.4587 151.326 32.4848 153.727 32.5095C175.339 32.7318 196.951 32.843 218.563 32.843C240.175 32.843 261.787 32.7318 283.399 32.5095C285.801 32.4848 288.202 32.4587 290.604 32.4313Z" fill="#CC85FC"/>
<path d="M290.604 62.3141C287.242 62.2866 283.88 62.2605 280.518 62.2358C250.261 62.0135 220.004 61.9023 189.747 61.9023C159.49 61.9023 129.233 62.0135 98.9762 62.2358C95.6143 62.2605 92.2524 62.2866 88.8905 62.3141C92.2524 62.3415 95.6143 62.3676 98.9762 62.3923C129.233 62.6146 159.49 62.7258 189.747 62.7258C220.004 62.7258 250.261 62.6146 280.518 62.3923C283.88 62.3676 287.242 62.3415 290.604 62.3141Z" fill="#CC85FC"/>
<path d="M331.777 121.009C327.729 120.982 323.681 120.956 319.633 120.931C283.199 120.709 246.766 120.598 210.332 120.598C173.899 120.598 137.465 120.709 101.031 120.931C96.9833 120.956 92.9351 120.982 88.8869 121.009C92.9351 121.037 96.9833 121.063 101.031 121.088C137.465 121.31 173.899 121.421 210.332 121.421C246.766 121.421 283.199 121.31 319.633 121.088C323.681 121.063 327.729 121.037 331.777 121.009Z" fill="#CC85FC"/>
<path d="M331.777 178.646C327.729 178.619 323.681 178.593 319.633 178.568C283.199 178.346 246.766 178.234 210.332 178.234C173.899 178.234 137.465 178.346 101.031 178.568C96.9833 178.593 92.9351 178.619 88.8869 178.646C92.9351 178.674 96.9833 178.7 101.031 178.724C137.465 178.947 173.899 179.058 210.332 179.058C246.766 179.058 283.199 178.947 319.633 178.724C323.681 178.7 327.729 178.674 331.777 178.646Z" fill="#CC85FC"/>
<path d="M331.777 150.525C327.729 150.498 323.681 150.471 319.633 150.447C283.199 150.224 246.766 150.113 210.332 150.113C173.899 150.113 137.465 150.224 101.031 150.447C96.9833 150.471 92.9351 150.498 88.8869 150.525C92.9351 150.552 96.9833 150.579 101.031 150.603C137.465 150.826 173.899 150.937 210.332 150.937C246.766 150.937 283.199 150.826 319.633 150.603C323.681 150.579 327.729 150.552 331.777 150.525Z" fill="#CC85FC"/>
<path d="M331.777 93.4703C327.729 93.4429 323.681 93.4168 319.633 93.3921C283.199 93.1698 246.766 93.0586 210.332 93.0586C173.899 93.0586 137.465 93.1697 101.031 93.3921C96.9833 93.4168 92.9351 93.4428 88.8869 93.4703C92.9351 93.4977 96.9833 93.5238 101.031 93.5485C137.465 93.7709 173.899 93.882 210.332 93.882C246.766 93.882 283.199 93.7709 319.633 93.5485C323.681 93.5238 327.729 93.4978 331.777 93.4703Z" fill="#CC85FC"/>
<path d="M288.467 210.961C286.137 210.933 283.806 210.907 281.476 210.883C260.504 210.66 239.533 210.549 218.561 210.549C197.589 210.549 176.617 210.66 155.646 210.883C153.316 210.907 150.985 210.933 148.655 210.961C150.985 210.988 153.316 211.014 155.646 211.039C176.617 211.261 197.589 211.373 218.561 211.373C239.533 211.373 260.504 211.261 281.476 211.039C283.806 211.014 286.137 210.988 288.467 210.961Z" fill="#CC85FC"/>
</g>
<ellipse cx="211.268" cy="61.12" rx="45.5143" ry="45.12" fill="url(#paint1_linear_1604_3681)"/>
<ellipse cx="218.143" cy="61.12" rx="45.5143" ry="45.12" fill="url(#paint2_linear_1604_3681)"/>
<ellipse cx="218.999" cy="61.9924" rx="34.3504" ry="33.84" fill="url(#paint3_linear_1604_3681)"/>
<ellipse cx="217.281" cy="61.1119" rx="32.6329" ry="31.2369" fill="url(#paint4_linear_1604_3681)"/>
<path d="M126 176.704C126 137.247 157.986 105.262 197.442 105.262H218.631C258.088 105.262 290.074 137.247 290.074 176.704V219.026H126V176.704Z" fill="url(#paint5_linear_1604_3681)"/>
<path d="M133.674 176.704C133.674 137.247 165.66 105.262 205.116 105.262H226.305C265.762 105.262 297.747 137.247 297.747 176.704V219.026H133.674V176.704Z" fill="url(#paint6_linear_1604_3681)"/>
<path d="M151.047 183.275C151.047 145.43 181.726 114.75 219.572 114.75C257.417 114.75 288.097 145.43 288.097 183.275V209.553H151.047V183.275Z" fill="url(#paint7_linear_1604_3681)"/>
<path d="M147.182 183.275C147.182 145.43 177.861 114.75 215.707 114.75C253.552 114.75 284.231 145.43 284.231 183.275V209.553H147.182V183.275Z" fill="url(#paint8_linear_1604_3681)"/>
<g filter="url(#filter2_f_1604_3681)">
<path d="M271.417 127.825C274.206 125.038 278.725 125.038 281.515 127.825L289.345 135.647C290.74 137.04 292.649 137.795 294.619 137.733L305.941 137.376C310.075 137.245 313.455 140.642 313.306 144.775L312.96 154.319C312.882 156.471 313.78 158.544 315.403 159.96L322.787 166.404C326.05 169.251 326.05 174.323 322.787 177.17L315.403 183.613C313.78 185.029 312.882 187.102 312.96 189.255L313.306 198.799C313.455 202.932 310.075 206.328 305.941 206.198L294.619 205.841C292.649 205.778 290.74 206.533 289.345 207.927L281.514 215.749C278.725 218.535 274.206 218.535 271.417 215.749L263.586 207.927C262.191 206.533 260.282 205.778 258.312 205.841L246.99 206.198C242.856 206.328 239.476 202.932 239.625 198.799L239.971 189.255C240.049 187.102 239.151 185.029 237.528 183.613L230.144 177.17C226.881 174.323 226.881 169.251 230.144 166.404L237.528 159.96C239.151 158.544 240.049 156.471 239.971 154.319L239.625 144.775C239.476 140.642 242.856 137.245 246.99 137.376L258.312 137.733C260.282 137.795 262.191 137.04 263.586 135.647L271.417 127.825Z" fill="#078807" fill-opacity="0.6"/>
</g>
<path d="M280.169 127.825C282.958 125.038 287.477 125.038 290.266 127.825L298.097 135.647C299.492 137.04 301.401 137.795 303.371 137.733L314.693 137.376C318.827 137.245 322.207 140.642 322.058 144.775L321.712 154.319C321.634 156.471 322.532 158.544 324.155 159.96L331.539 166.404C334.802 169.251 334.802 174.323 331.539 177.17L324.155 183.613C322.532 185.029 321.634 187.102 321.712 189.255L322.058 198.799C322.207 202.932 318.827 206.328 314.693 206.198L303.371 205.841C301.401 205.778 299.492 206.533 298.097 207.927L290.266 215.749C287.477 218.535 282.958 218.535 280.169 215.749L272.338 207.927C270.943 206.533 269.034 205.778 267.064 205.841L255.742 206.198C251.608 206.328 248.228 202.932 248.377 198.799L248.723 189.255C248.801 187.102 247.903 185.029 246.28 183.613L238.896 177.17C235.633 174.323 235.633 169.251 238.896 166.404L246.28 159.96C247.903 158.544 248.801 156.471 248.723 154.319L248.377 144.775C248.228 140.642 251.608 137.245 255.742 137.376L267.064 137.733C269.034 137.795 270.943 137.04 272.338 135.647L280.169 127.825Z" fill="url(#paint9_linear_1604_3681)"/>
<path d="M283.502 128.368C286.326 125.346 291.118 125.346 293.942 128.368L300.567 135.458C301.975 136.965 303.966 137.79 306.028 137.721L315.725 137.393C319.858 137.253 323.246 140.641 323.106 144.774L322.778 154.478C322.709 156.539 323.533 158.53 325.039 159.938L332.131 166.568C335.152 169.392 335.152 174.182 332.131 177.006L325.039 183.636C323.533 185.044 322.709 187.034 322.778 189.096L323.106 198.799C323.246 202.932 319.858 206.32 315.725 206.181L306.028 205.853C303.966 205.783 301.975 206.608 300.567 208.115L293.942 215.205C291.118 218.228 286.326 218.228 283.502 215.205L276.877 208.115C275.469 206.608 273.478 205.783 271.416 205.853L261.719 206.181C257.586 206.32 254.198 202.932 254.338 198.799L254.666 189.096C254.735 187.034 253.911 185.044 252.405 183.636L245.313 177.006C242.292 174.182 242.292 169.392 245.313 166.568L252.405 159.938C253.911 158.53 254.735 156.539 254.666 154.478L254.338 144.774C254.198 140.641 257.586 137.253 261.719 137.393L271.416 137.721C273.478 137.79 275.469 136.965 276.877 135.458L283.502 128.368Z" fill="url(#paint10_linear_1604_3681)"/>
<path d="M283.5 131.849C286.324 128.826 291.117 128.826 293.941 131.849L299.561 137.864C300.969 139.371 302.961 140.196 305.022 140.126L313.249 139.848C317.382 139.708 320.77 143.096 320.63 147.229L320.352 155.463C320.283 157.524 321.107 159.514 322.613 160.923L328.631 166.548C331.651 169.372 331.651 174.162 328.631 176.986L322.613 182.611C321.107 184.019 320.283 186.01 320.352 188.071L320.63 196.304C320.77 200.437 317.382 203.825 313.249 203.686L305.022 203.407C302.961 203.338 300.969 204.163 299.561 205.67L293.941 211.685C291.117 214.707 286.324 214.707 283.5 211.685L277.88 205.67C276.472 204.163 274.481 203.338 272.419 203.407L264.192 203.686C260.059 203.825 256.671 200.437 256.811 196.304L257.089 188.071C257.159 186.01 256.334 184.019 254.828 182.611L248.811 176.986C245.79 174.162 245.79 169.372 248.811 166.548L254.828 160.923C256.334 159.514 257.159 157.524 257.089 155.463L256.811 147.229C256.671 143.096 260.059 139.708 264.192 139.848L272.419 140.126C274.481 140.196 276.472 139.371 277.88 137.864L283.5 131.849Z" fill="url(#paint11_linear_1604_3681)" fill-opacity="0.5" style="mix-blend-mode:multiply"/>
<g filter="url(#filter3_f_1604_3681)">
<mask id="path-65-inside-1_1604_3681" fill="white">
<path d="M283.502 128.368C286.326 125.346 291.118 125.346 293.942 128.368L300.567 135.458C301.975 136.965 303.966 137.79 306.028 137.721L315.725 137.393C319.858 137.253 323.246 140.641 323.106 144.774L322.778 154.478C322.709 156.539 323.533 158.53 325.039 159.938L332.131 166.568C335.152 169.392 335.152 174.182 332.131 177.006L325.039 183.636C323.533 185.044 322.709 187.034 322.778 189.096L323.106 198.799C323.246 202.932 319.858 206.32 315.725 206.181L306.028 205.853C303.966 205.783 301.975 206.608 300.567 208.115L293.942 215.205C291.118 218.228 286.326 218.228 283.502 215.205L276.877 208.115C275.469 206.608 273.478 205.783 271.416 205.853L261.719 206.181C257.586 206.32 254.198 202.932 254.338 198.799L254.666 189.096C254.735 187.034 253.911 185.044 252.405 183.636L245.313 177.006C242.292 174.182 242.292 169.392 245.313 166.568L252.405 159.938C253.911 158.53 254.735 156.539 254.666 154.478L254.338 144.774C254.198 140.641 257.586 137.253 261.719 137.393L271.416 137.721C273.478 137.79 275.469 136.965 276.877 135.458L283.502 128.368Z"/>
</mask>
<path d="M293.942 128.368C293.942 128.368 293.942 128.368 293.942 128.368C296.122 130.758 298.303 133.147 300.484 135.535C301.665 136.835 303.339 137.682 305.1 137.862C305.41 137.895 305.722 137.907 306.034 137.9C309.268 137.825 312.501 137.75 315.734 137.673C319.557 137.482 322.983 141.009 322.716 144.761C322.577 147.995 322.44 151.228 322.304 154.462C322.204 156.629 323.092 158.825 324.682 160.32C327.029 162.548 329.377 164.775 331.726 167.002C334.44 169.444 334.391 174.146 331.674 176.516C329.297 178.712 326.92 180.909 324.545 183.107C322.894 184.621 321.948 186.873 322.024 189.121C322.118 192.356 322.213 195.591 322.31 198.826C322.509 202.358 319.259 205.571 315.753 205.344C312.521 205.225 309.289 205.107 306.057 204.991C303.778 204.899 301.482 205.845 299.928 207.518C297.715 209.878 295.504 212.238 293.294 214.599C290.981 217.209 286.462 217.205 284.154 214.596C284.154 214.596 284.154 214.596 284.154 214.596C281.946 212.232 279.737 209.87 277.527 207.508C275.971 205.83 273.671 204.88 271.386 204.97C268.154 205.084 264.922 205.198 261.69 205.314C258.2 205.537 254.973 202.337 255.175 198.828C255.274 195.593 255.373 192.358 255.47 189.123C255.549 186.861 254.598 184.593 252.937 183.066C250.564 180.866 248.189 178.667 245.814 176.469C243.127 174.119 243.085 169.468 245.77 167.057C248.121 164.833 250.471 162.608 252.82 160.382C254.43 158.872 255.329 156.652 255.23 154.459C255.097 151.225 254.963 147.991 254.828 144.758C254.568 141.061 257.945 137.592 261.706 137.783C264.939 137.864 268.173 137.942 271.406 138.02C273.526 138.081 275.639 137.178 277.052 135.621C278.521 134.016 279.989 132.411 281.457 130.805C282.172 130.024 282.886 129.242 283.6 128.46C286.153 125.505 291.262 125.418 293.942 128.368C293.942 128.368 293.942 128.368 293.942 128.368C291.343 125.353 286.13 125.266 283.403 128.276C282.672 129.042 281.94 129.808 281.209 130.573C279.707 132.147 278.205 133.721 276.703 135.295C275.351 136.724 273.373 137.516 271.426 137.421C268.195 137.28 264.964 137.141 261.733 137.002C257.544 136.709 253.624 140.538 253.848 144.791C253.931 148.026 254.015 151.262 254.101 154.497C254.158 156.37 253.364 158.24 251.989 159.494C249.611 161.688 247.233 163.883 244.855 166.079C241.579 168.947 241.537 174.613 244.811 177.542C247.164 179.764 249.518 181.985 251.872 184.205C253.195 185.443 253.939 187.265 253.862 189.068C253.74 192.303 253.62 195.537 253.501 198.771C253.219 203.212 257.289 207.308 261.749 207.047C264.981 206.944 268.213 206.84 271.446 206.735C273.228 206.67 275.019 207.414 276.228 208.723C278.434 211.088 280.641 213.452 282.849 215.815C282.849 215.815 282.849 215.815 282.849 215.815C285.821 219.171 291.624 219.167 294.591 215.811C296.797 213.446 299.002 211.08 301.206 208.713C302.416 207.4 304.211 206.651 305.999 206.715C309.231 206.817 312.464 206.918 315.696 207.017C320.14 207.274 324.187 203.19 323.902 198.772C323.78 195.538 323.657 192.304 323.532 189.07C323.453 187.253 324.2 185.415 325.534 184.165C327.886 181.942 330.238 179.719 332.589 177.495C335.833 174.586 335.784 168.971 332.537 166.134C330.158 163.94 327.778 161.748 325.397 159.556C324.003 158.287 323.196 156.393 323.252 154.494C323.335 151.259 323.416 148.023 323.497 144.787C323.713 140.59 319.842 136.82 315.715 137.113C312.484 137.255 309.253 137.397 306.022 137.541C305.725 137.555 305.428 137.549 305.132 137.524C303.45 137.389 301.821 136.615 300.649 135.381C298.414 133.043 296.179 130.705 293.942 128.368ZM293.942 128.368" fill="white" mask="url(#path-65-inside-1_1604_3681)"/>
</g>
<path d="M264.223 171.187L278.566 186.042L309.876 159.52" stroke="#005D00" stroke-width="7.14422" stroke-linecap="round" stroke-linejoin="round"/>
<path d="M267.717 171.187L282.06 186.042L313.37 159.52" stroke="white" stroke-width="7.14422" stroke-linecap="round" stroke-linejoin="round"/>
</g>
<defs>
<filter id="filter0_f_1604_3681" x="1" y="199" width="307" height="37" filterUnits="userSpaceOnUse" color-interpolation-filters="sRGB">
<feFlood flood-opacity="0" result="BackgroundImageFix"/>
<feBlend mode="normal" in="SourceGraphic" in2="BackgroundImageFix" result="shape"/>
<feGaussianBlur stdDeviation="5" result="effect1_foregroundBlur_1604_3681"/>
</filter>
<filter id="filter1_f_1604_3681" x="85.5929" y="-3.29379" width="249.478" height="244.588" filterUnits="userSpaceOnUse" color-interpolation-filters="sRGB">
<feFlood flood-opacity="0" result="BackgroundImageFix"/>
<feBlend mode="normal" in="SourceGraphic" in2="BackgroundImageFix" result="shape"/>
<feGaussianBlur stdDeviation="1.6469" result="effect1_foregroundBlur_1604_3681"/>
</filter>
<filter id="filter2_f_1604_3681" x="220.553" y="118.59" width="111.826" height="106.394" filterUnits="userSpaceOnUse" color-interpolation-filters="sRGB">
<feFlood flood-opacity="0" result="BackgroundImageFix"/>
<feBlend mode="normal" in="SourceGraphic" in2="BackgroundImageFix" result="shape"/>
<feGaussianBlur stdDeviation="3.57211" result="effect1_foregroundBlur_1604_3681"/>
</filter>
<filter id="filter3_f_1604_3681" x="241.261" y="124.316" width="94.9217" height="94.9432" filterUnits="userSpaceOnUse" color-interpolation-filters="sRGB">
<feFlood flood-opacity="0" result="BackgroundImageFix"/>
<feBlend mode="normal" in="SourceGraphic" in2="BackgroundImageFix" result="shape"/>
<feGaussianBlur stdDeviation="0.893028" result="effect1_foregroundBlur_1604_3681"/>
</filter>
<linearGradient id="paint0_linear_1604_3681" x1="11" y1="217.5" x2="298" y2="217.5" gradientUnits="userSpaceOnUse">
<stop stop-color="#6E41F4"/>
<stop offset="1" stop-color="#40268E"/>
</linearGradient>
<linearGradient id="paint1_linear_1604_3681" x1="211.268" y1="16" x2="211.268" y2="106.24" gradientUnits="userSpaceOnUse">
<stop stop-color="#4845FB"/>
<stop offset="0.221154" stop-color="#BA6BFF"/>
<stop offset="0.456731" stop-color="#B3B4FF"/>
<stop offset="0.639423" stop-color="#A637E9"/>
<stop offset="1" stop-color="#4432F5"/>
</linearGradient>
<linearGradient id="paint2_linear_1604_3681" x1="218.143" y1="16" x2="218.143" y2="106.24" gradientUnits="userSpaceOnUse">
<stop stop-color="#EBDCFB"/>
<stop offset="1" stop-color="#9869F7"/>
</linearGradient>
<linearGradient id="paint3_linear_1604_3681" x1="218.999" y1="28.1523" x2="218.999" y2="95.8324" gradientUnits="userSpaceOnUse">
<stop stop-color="#855CFA"/>
<stop offset="1" stop-color="#5B2BEF"/>
</linearGradient>
<linearGradient id="paint4_linear_1604_3681" x1="217.281" y1="29.875" x2="217.281" y2="92.3489" gradientUnits="userSpaceOnUse">
<stop stop-color="#C6AEFF"/>
<stop offset="1" stop-color="#8356FC"/>
</linearGradient>
<linearGradient id="paint5_linear_1604_3681" x1="208.037" y1="105.262" x2="208.037" y2="219.026" gradientUnits="userSpaceOnUse">
<stop stop-color="#3D42FB"/>
<stop offset="0.254808" stop-color="#BA68FF"/>
<stop offset="0.471154" stop-color="#B3B6FF"/>
<stop offset="0.706731" stop-color="#A637E9"/>
<stop offset="1" stop-color="#3A32F6"/>
</linearGradient>
<linearGradient id="paint6_linear_1604_3681" x1="150.081" y1="136.073" x2="234.513" y2="234.443" gradientUnits="userSpaceOnUse">
<stop stop-color="#F2E5FB"/>
<stop offset="1" stop-color="#9565F7"/>
</linearGradient>
<linearGradient id="paint7_linear_1604_3681" x1="219.572" y1="114.75" x2="219.572" y2="209.553" gradientUnits="userSpaceOnUse">
<stop stop-color="#9169FD"/>
<stop offset="1" stop-color="#5929EF"/>
</linearGradient>
<linearGradient id="paint8_linear_1604_3681" x1="215.707" y1="114.75" x2="215.707" y2="209.553" gradientUnits="userSpaceOnUse">
<stop stop-color="#CCB6FF"/>
<stop offset="1" stop-color="#7F50FC"/>
</linearGradient>
<linearGradient id="paint9_linear_1604_3681" x1="285.217" y1="122.781" x2="285.217" y2="220.792" gradientUnits="userSpaceOnUse">
<stop stop-color="#0B760B"/>
<stop offset="1" stop-color="#013F01"/>
</linearGradient>
<linearGradient id="paint10_linear_1604_3681" x1="288.722" y1="122.781" x2="288.722" y2="220.792" gradientUnits="userSpaceOnUse">
<stop stop-color="#28E728"/>
<stop offset="1" stop-color="#07A807"/>
</linearGradient>
<linearGradient id="paint11_linear_1604_3681" x1="288.721" y1="126.262" x2="288.721" y2="217.272" gradientUnits="userSpaceOnUse">
<stop offset="0.0255159" stop-color="#07A807"/>
<stop offset="0.951365" stop-color="#28E728"/>
</linearGradient>
<clipPath id="clip0_1604_3681">
<rect width="351" height="251" fill="white"/>
</clipPath>
</defs>
</svg>
